<svg width="44" height="44" viewBox="0 0 44 44" fill="none" xmlns="http://www.w3.org/2000/svg">
<path d="M15.1992 25.5859H28.584C32.1826 25.5859 34.8789 22.8574 34.8789 19.4521C34.8789 15.9502 32.0537 13.3613 28.3691 13.3613C27.0479 10.7617 24.5879 9 21.333 9C17.2188 9 13.8779 12.1689 13.4805 16.1758C11.4932 16.7666 10 18.4854 10 20.8057C10 23.4697 11.9443 25.5859 15.1992 25.5859ZM25.1787 29.5605H22.9014L23.9219 27.5947C24.0508 27.3584 23.9541 27.1758 23.7178 27.1758H21.1934C20.8926 27.1758 20.7744 27.2832 20.6777 27.5088L19.1846 30.9033C19.0771 31.1719 19.1846 31.333 19.4746 31.333H21.376L19.915 34.8672C19.8613 35.0068 19.8936 35.1357 19.9902 35.1787C20.0869 35.2109 20.2051 35.1895 20.3232 35.0713L25.3398 30.0977C25.5762 29.8613 25.4902 29.5605 25.1787 29.5605Z" fill="white"/>
</svg>
