<svg width="44" height="44" viewBox="0 0 44 44" fill="none" xmlns="http://www.w3.org/2000/svg">
<path d="M26.3564 11.1787C26.8828 11.1787 27.3232 10.7275 27.3232 10.2012V7.97754C27.3232 7.44043 26.8828 7 26.3564 7C25.8193 7 25.3789 7.44043 25.3789 7.97754V10.2012C25.3789 10.7275 25.8193 11.1787 26.3564 11.1787ZM19.9756 13.252C20.3623 13.6387 20.9854 13.6279 21.3506 13.252C21.7158 12.8867 21.7266 12.2744 21.3506 11.8984L19.7715 10.2979C19.3955 9.92188 18.7725 9.93262 18.4072 10.2979C18.0312 10.6738 18.0312 11.2969 18.4072 11.6729L19.9756 13.252ZM31.3516 13.2627C31.7168 13.6279 32.3506 13.6387 32.7266 13.252L34.3057 11.6729C34.6816 11.2969 34.6816 10.6738 34.3057 10.3086C33.9297 9.93262 33.3174 9.93262 32.9414 10.3086L31.3516 11.8984C30.9756 12.2637 30.9863 12.8867 31.3516 13.2627ZM29.2139 22.834C30.7607 21.792 31.7275 20.1484 31.7275 18.2471C31.7275 15.2715 29.332 12.876 26.3564 12.876C24.3906 12.876 22.6826 13.918 21.791 15.4648C22.2529 15.9375 22.6504 16.4531 22.9834 17.0869C26.4746 17.3555 28.8594 19.5898 29.2139 22.834ZM10.5117 29.0322H22.4355C25.4971 29.0322 27.8604 26.7012 27.8604 23.6719C27.8604 20.6211 25.4326 18.333 22.1562 18.3223C20.9424 16.002 18.7295 14.498 15.9473 14.498C12.3809 14.498 9.37305 17.248 9.05078 20.8359C7.19238 21.373 6 22.9521 6 24.8857C6 27.3457 7.83691 29.0322 10.5117 29.0322ZM34.3916 19.2139H36.6152C37.1523 19.2139 37.582 18.7842 37.582 18.2578C37.582 17.7207 37.1523 17.2803 36.6152 17.2803H34.3916C33.8652 17.2803 33.4141 17.7207 33.4141 18.2578C33.4141 18.7842 33.8652 19.2139 34.3916 19.2139ZM32.9414 26.207C33.3174 26.583 33.9297 26.583 34.3057 26.207C34.6709 25.8311 34.6709 25.2188 34.2949 24.8428L32.7158 23.2637C32.3398 22.8984 31.7275 22.8877 31.3516 23.2637C30.9756 23.6396 30.9756 24.252 31.3516 24.6279L32.9414 26.207ZM19.0947 34.2529L20.4805 31.8574C20.6953 31.5029 20.5879 31.0947 20.2334 30.8906C19.8896 30.6865 19.4922 30.8047 19.2773 31.1592L17.8916 33.5762C17.6875 33.9092 17.7842 34.3174 18.1387 34.5215C18.4824 34.7148 18.9014 34.5967 19.0947 34.2529ZM10.5547 34.2637L11.9404 31.8682C12.1445 31.5137 12.0371 31.1055 11.6934 30.9014C11.3389 30.6973 10.9414 30.8154 10.7373 31.1699L9.34082 33.5869C9.14746 33.9199 9.2334 34.3281 9.59863 34.5322C9.94238 34.7256 10.3613 34.6074 10.5547 34.2637ZM22.4678 37.2715L23.8535 34.876C24.0576 34.5215 23.9502 34.1133 23.6064 33.9092C23.252 33.7051 22.8652 33.8232 22.6504 34.1777L21.2539 36.5947C21.0605 36.9277 21.1572 37.3359 21.5117 37.54C21.8555 37.7334 22.2744 37.6152 22.4678 37.2715ZM13.917 37.2822L15.3027 34.8867C15.5176 34.5322 15.4102 34.124 15.0557 33.9199C14.7119 33.7158 14.3145 33.834 14.0996 34.1885L12.7139 36.6055C12.5098 36.9385 12.6064 37.3467 12.9609 37.5508C13.3047 37.7441 13.7236 37.626 13.917 37.2822Z" fill="white"/>
</svg>
