<svg width="44" height="44" viewBox="0 0 44 44" fill="none" xmlns="http://www.w3.org/2000/svg">
<path d="M15.1992 25.5859H28.584C32.1826 25.5859 34.8789 22.8574 34.8789 19.4521C34.8789 15.9502 32.0537 13.3613 28.3691 13.3613C27.0479 10.7617 24.5879 9 21.333 9C17.2188 9 13.8779 12.1689 13.4805 16.1758C11.4932 16.7666 10 18.4854 10 20.8057C10 23.4697 11.9443 25.5859 15.1992 25.5859ZM17.6807 33.8145L20.8281 28.3682C21.0322 28.0137 20.9248 27.6055 20.5811 27.4014C20.2266 27.208 19.8291 27.3154 19.625 27.6807L16.4775 33.1377C16.2842 33.4707 16.3701 33.8789 16.7246 34.083C17.0684 34.2764 17.4873 34.1582 17.6807 33.8145ZM13.4053 33.8145L16.542 28.3682C16.7461 28.0137 16.6387 27.6162 16.2949 27.4121C15.9404 27.208 15.5537 27.3154 15.3389 27.6807L12.1914 33.1377C11.998 33.4707 12.084 33.8789 12.4385 34.083C12.793 34.2764 13.2012 34.1582 13.4053 33.8145ZM21.9561 33.8145L25.1035 28.3682C25.3076 28.0137 25.2002 27.6162 24.8564 27.4121C24.502 27.208 24.1045 27.3154 23.9004 27.6807L20.7422 33.1377C20.5596 33.4707 20.6455 33.8789 21 34.083C21.3438 34.2764 21.7627 34.1582 21.9561 33.8145ZM26.21 33.8252L29.3789 28.3574C29.5723 28.0137 29.4756 27.5947 29.1318 27.4014C28.7881 27.2188 28.3799 27.3154 28.1758 27.6699L25.0391 33.1162C24.835 33.4707 24.9316 33.8789 25.2754 34.083C25.5977 34.2764 26.0273 34.1582 26.21 33.8252Z" fill="white"/>
</svg>
