<svg width="44" height="44" viewBox="0 0 44 44" fill="none" xmlns="http://www.w3.org/2000/svg">
<path d="M11.5835 17.1558C12.4482 17.1558 13.1558 16.4482 13.1558 15.5723C13.1558 14.7075 12.4482 14 11.5835 14C10.7075 14 10 14.7075 10 15.5723C10 16.4482 10.7075 17.1558 11.5835 17.1558ZM16.8281 16.6392H32.0903C32.6855 16.6392 33.1572 16.1675 33.1572 15.5723C33.1572 14.9771 32.6855 14.5054 32.0903 14.5054H16.8281C16.2329 14.5054 15.7612 14.9771 15.7612 15.5723C15.7612 16.1675 16.2329 16.6392 16.8281 16.6392ZM11.5835 24.0513C12.4482 24.0513 13.1558 23.3438 13.1558 22.4678C13.1558 21.603 12.4482 20.8955 11.5835 20.8955C10.7075 20.8955 10 21.603 10 22.4678C10 23.3438 10.7075 24.0513 11.5835 24.0513ZM16.8281 23.5347H32.0903C32.6855 23.5347 33.1572 23.063 33.1572 22.4678C33.1572 21.8726 32.6855 21.4009 32.0903 21.4009H16.8281C16.2329 21.4009 15.7612 21.8726 15.7612 22.4678C15.7612 23.063 16.2329 23.5347 16.8281 23.5347ZM11.5835 30.9468C12.4482 30.9468 13.1558 30.2393 13.1558 29.3633C13.1558 28.4985 12.4482 27.791 11.5835 27.791C10.7075 27.791 10 28.4985 10 29.3633C10 30.2393 10.7075 30.9468 11.5835 30.9468ZM16.8281 30.4302H32.0903C32.6855 30.4302 33.1572 29.9585 33.1572 29.3633C33.1572 28.7681 32.6855 28.2964 32.0903 28.2964H16.8281C16.2329 28.2964 15.7612 28.7681 15.7612 29.3633C15.7612 29.9585 16.2329 30.4302 16.8281 30.4302Z" fill="white"/>
</svg>
