<svg width="44" height="44" viewBox="0 0 44 44" fill="none" xmlns="http://www.w3.org/2000/svg">
<path d="M15.1992 25.5859H28.584C32.1826 25.5859 34.8789 22.8574 34.8789 19.4521C34.8789 15.9502 32.0537 13.3613 28.3691 13.3613C27.0479 10.7617 24.5879 9 21.333 9C17.2188 9 13.8779 12.1689 13.4805 16.1758C11.4932 16.7666 10 18.4854 10 20.8057C10 23.4697 11.9443 25.5859 15.1992 25.5859ZM24.083 30.7529L25.4688 28.3574C25.6729 28.0029 25.5654 27.5947 25.2217 27.3906C24.8672 27.1865 24.4697 27.3047 24.2656 27.6592L22.8691 30.0762C22.6758 30.4092 22.7617 30.8174 23.127 31.0215C23.4707 31.2256 23.8896 31.0967 24.083 30.7529ZM15.5322 30.7637L16.918 28.3682C17.1221 28.0137 17.0146 27.6055 16.6709 27.4014C16.3164 27.1973 15.9297 27.3154 15.7148 27.6699L14.3184 30.0869C14.125 30.4199 14.2217 30.8281 14.5762 31.0322C14.9199 31.2256 15.3389 31.1074 15.5322 30.7637ZM27.4453 33.7822L28.8311 31.376C29.0459 31.0322 28.9385 30.6133 28.584 30.4092C28.2402 30.2158 27.8428 30.3232 27.6279 30.6885L26.2422 33.1055C26.0381 33.4385 26.1348 33.8467 26.4893 34.0508C26.833 34.2441 27.252 34.1152 27.4453 33.7822ZM18.9053 33.7822L20.291 31.3867C20.4951 31.043 20.3877 30.624 20.0439 30.4199C19.6895 30.2158 19.292 30.334 19.0879 30.6992L17.6914 33.1055C17.498 33.4385 17.584 33.8574 17.9492 34.0615C18.293 34.2549 18.7119 34.126 18.9053 33.7822Z" fill="white"/>
</svg>
