<svg width="24" height="24" viewBox="0 0 24 24" fill="none" xmlns="http://www.w3.org/2000/svg">
<path opacity="0.5" d="M3 10.4033C3 14.4854 6.32129 17.8066 10.4033 17.8066C12.0176 17.8066 13.4927 17.2871 14.708 16.415L19.2725 20.9888C19.4858 21.2021 19.7642 21.3042 20.061 21.3042C20.6919 21.3042 21.1279 20.8311 21.1279 20.2095C21.1279 19.9126 21.0166 19.6436 20.8218 19.4487L16.2852 14.8843C17.2407 13.6411 17.8066 12.0918 17.8066 10.4033C17.8066 6.32129 14.4854 3 10.4033 3C6.32129 3 3 6.32129 3 10.4033ZM4.58643 10.4033C4.58643 7.19336 7.19336 4.58643 10.4033 4.58643C13.6133 4.58643 16.2202 7.19336 16.2202 10.4033C16.2202 13.6133 13.6133 16.2202 10.4033 16.2202C7.19336 16.2202 4.58643 13.6133 4.58643 10.4033Z" fill="white"/>
</svg>
