<svg width="44" height="44" viewBox="0 0 44 44" fill="none" xmlns="http://www.w3.org/2000/svg">
<path d="M22.1055 34.2109C28.7266 34.2109 34.2109 28.7383 34.2109 22.1055C34.2109 15.4844 28.7266 10 22.0938 10C15.4727 10 10 15.4844 10 22.1055C10 28.7383 15.4844 34.2109 22.1055 34.2109ZM22.1055 31.832C16.7148 31.832 12.3906 27.4961 12.3906 22.1055C12.3906 16.7148 16.7031 12.3906 22.0938 12.3906C27.4844 12.3906 31.8203 16.7148 31.832 22.1055C31.832 27.4961 27.4961 31.832 22.1055 31.832ZM16.6445 23.8633C17.6172 23.8633 18.4141 23.0781 18.4141 22.0938C18.4141 21.1211 17.6055 20.3359 16.6445 20.3359C15.6719 20.3359 14.875 21.1211 14.875 22.0938C14.875 23.0781 15.6719 23.8633 16.6445 23.8633ZM22.0938 23.8633C23.0664 23.8633 23.8516 23.0781 23.8516 22.0938C23.8516 21.1211 23.0664 20.3359 22.0938 20.3359C21.1211 20.3359 20.3242 21.1211 20.3242 22.0938C20.3242 23.0781 21.1211 23.8633 22.0938 23.8633ZM27.5312 23.8633C28.5156 23.8633 29.3008 23.0781 29.3008 22.0938C29.3008 21.1211 28.5156 20.3359 27.5312 20.3359C26.5586 20.3359 25.7734 21.1211 25.7734 22.0938C25.7734 23.0781 26.5586 23.8633 27.5312 23.8633Z" fill="white"/>
</svg>
