<svg width="44" height="44" viewBox="0 0 44 44" fill="none" xmlns="http://www.w3.org/2000/svg">
<path d="M11.4937 32.9893C11.8643 32.9893 12.2012 32.8657 12.6392 32.6187L18.1196 29.6538L24.1055 33.0117C24.5771 33.2588 25.0601 33.3936 25.5317 33.3936C25.9922 33.3936 26.4526 33.27 26.8569 33.0342L32.4722 29.8672C33.2358 29.4404 33.5728 28.834 33.5728 27.9805V12.8979C33.5728 11.9546 33.0112 11.3931 32.0791 11.3931C31.7085 11.3931 31.3828 11.5278 30.9336 11.7749L25.2397 14.9419L19.3325 11.3594C18.917 11.1235 18.4565 11 17.9961 11C17.5356 11 17.0864 11.1123 16.6821 11.3481L11.1118 14.5151C10.3369 14.9419 10 15.5371 10 16.3906V31.4956C10 32.439 10.5615 32.9893 11.4937 32.9893ZM17.1313 27.666L12.4819 30.2266C12.4033 30.2603 12.3359 30.2939 12.2798 30.2939C12.1562 30.2939 12.0776 30.1929 12.0776 30.0469V16.9634C12.0776 16.6489 12.1899 16.4468 12.4932 16.2783L16.772 13.7964C16.8955 13.7178 17.0078 13.6616 17.1313 13.5942V27.666ZM19.2427 27.7334V13.8638C19.355 13.9199 19.4897 13.9873 19.6021 14.0547L24.3301 16.9072V30.5747C24.1841 30.4961 24.0269 30.4175 23.8696 30.3389L19.2427 27.7334ZM26.4414 30.7432V16.7163L31.1021 14.1782C31.1582 14.1445 31.2256 14.1108 31.2817 14.1108C31.4053 14.1108 31.4951 14.2119 31.4951 14.3467V27.3853C31.4951 27.6997 31.3828 27.9019 31.0908 28.0703L26.958 30.4624C26.7896 30.5635 26.6099 30.6646 26.4414 30.7432Z" fill="white"/>
</svg>
