<svg width="44" height="44" viewBox="0 0 44 44" fill="none" xmlns="http://www.w3.org/2000/svg">
<path d="M31.2676 25.8588C34.5977 25.2035 36.585 22.475 36.585 20.681C36.585 20.2406 36.3916 19.9291 36.0371 19.9291C35.4893 19.9291 34.6943 20.6058 33.1904 20.6058C30.5908 20.6166 28.958 19.0375 28.958 16.6635C28.958 15.2025 29.6885 14.1498 29.6885 13.559C29.6885 13.2152 29.4521 12.9896 29.0225 13.0004C27.0674 13.0756 24.4678 15.267 23.8662 18.1781C24.2314 18.5219 24.5752 18.973 24.8545 19.5638C28.3994 19.8109 31.1279 22.5072 31.2676 25.8588ZM12.5225 31.6058H24.4355C27.5078 31.6058 29.8711 29.264 29.8711 26.2347C29.8711 23.184 27.4326 20.9066 24.167 20.8959C22.9424 18.5648 20.7402 17.0717 17.958 17.0717C14.3916 17.0717 11.3838 19.8109 11.0615 23.3988C9.19238 23.9359 8 25.515 8 27.4486C8 29.9193 9.83691 31.6058 12.5225 31.6058Z" fill="white"/>
</svg>
